<?xml version="1.0" encoding="UTF-8" standalone="no"?>
<!DOCTYPE svg PUBLIC "-//W3C//DTD SVG 1.1//EN" "http://www.w3.org/Graphics/SVG/1.1/DTD/svg11.dtd">
<svg version="1.1" xmlns="http://www.w3.org/2000/svg" xmlns:xlink="http://www.w3.org/1999/xlink" preserveAspectRatio="xMidYMid meet" viewBox="26.4620261966559 38.08228413033955 568.6100458754162 519.5690840186555" width="564.61" height="515.57"><defs><path d="M58.74 153.78C56.07 159.87 54.4 163.67 53.73 165.19C44.02 187.28 37.26 210.55 33.62 234.39C31.44 248.7 32.37 242.62 30.68 253.65C25.41 288.18 26.62 323.39 34.26 357.47C38.61 376.92 32.5 349.63 34.95 360.56C48.48 420.95 84.86 473.77 136.46 507.95C148.12 515.68 121.68 498.16 138.09 509.03C175.29 533.67 218.05 548.65 262.49 552.6C273.28 553.55 255.52 551.98 270.71 553.33C301.03 556.02 331.57 554.6 361.51 549.11C370.52 547.45 352.49 550.76 361.51 549.11C391.34 543.63 420.17 533.63 446.98 519.45C450.59 517.54 459.61 512.77 474.05 505.14C484.11 497.89 490.4 493.37 492.92 491.56C509.29 479.77 524.65 466.63 538.82 452.28C541 450.08 546.44 444.57 555.14 435.77C562.03 423.77 566.33 416.28 568.05 413.28C583.79 385.89 592.07 354.85 592.07 323.26C592.07 320.95 592.07 315.16 592.07 305.9C592.06 305.74 592.06 305.64 592.05 305.6C588.95 257.67 569.91 212.15 537.96 176.29C537.96 176.29 537.96 176.29 537.96 176.29C530.81 168.48 526.35 163.61 524.56 161.66C504.08 139.28 480.39 120.06 454.28 104.63C451.75 103.14 445.43 99.4 435.32 93.42C421.26 85.72 412.48 80.91 408.96 78.98C351.04 47.23 284.8 33.94 219.11 40.88C216.47 41.16 209.86 41.86 199.28 42.97C195.26 43.94 192.76 44.55 191.75 44.79C135.08 58.5 87.34 96.51 61.29 148.68C60.95 149.36 60.1 151.06 58.74 153.78Z" id="eiuVC89kz"></path></defs><g><g><use xlink:href="#eiuVC89kz" opacity="1" fill="#000000" fill-opacity="1"></use></g></g></svg>