<svg width="54" height="57" xmlns="http://www.w3.org/2000/svg" xmlns:xlink="http://www.w3.org/1999/xlink" xmlns:svgjs="http://svgjs.com/svgjs" viewBox="0.047 0 53.906 57" fill="#98d0c9"><svg xmlns="http://www.w3.org/2000/svg" width="54" height="57" viewBox="0.177 0.072 52.942 55.98"><path paint-order="stroke fill markers" fill-rule="evenodd" d="M49.934 38.608c-2.52 7.207-7.53 13.81-14.998 16.626-3.185 1.202-7.608 1.353-9.798-1.438-2.4-3.06-.297-7 1.7-9.96a123.805 123.805 0 0 0 10.798-19.6c1.041-2.374 1.956-5.264.34-7.569-2.233-3.187-7.354-2.597-10.487-.662-8.604 5.313-11.022 16.372-18.666 22.806-1.546 1.302-3.988 2.378-5.756 1.05-1.534-1.151-3.36-3.324-2.78-7.073C1.568 24.5 5.494 18.316 10.318 11.533 15.143 4.75 23.23-.327 32.293.097c8.791.41 15.482 6.264 19.023 13.656 3.601 7.518 1.101 17.753-1.382 24.855z"/></svg></svg>