<svg width="85" height="72" xmlns="http://www.w3.org/2000/svg" xmlns:xlink="http://www.w3.org/1999/xlink" xmlns:svgjs="http://svgjs.com/svgjs" viewBox="0 0.181 85 71.637" fill="#ffbbba"><svg xmlns="http://www.w3.org/2000/svg" width="85" height="72" viewBox="0.062 0.202 84.568 71.273"><path paint-order="stroke fill markers" fill-rule="evenodd" d="M4.532 27.244c3.134-1.768 7.264.768 9.65 3.463 3.012 3.401 5.378 8.876 9.897 8.41 2.938-.304 4.948-3.396 5.07-6.347.121-2.95-1.163-5.759-2.454-8.415-2.396-4.93-4.988-10.204-4.192-15.627C23.3 3.305 29.29-1.618 34.177.862c2.02 1.025 3.345 3.01 4.578 4.91l7.61 11.722c1.328 2.046 2.7 4.14 4.677 5.568 1.976 1.428 4.72 2.063 6.881.932 3.119-1.63 3.6-5.877 3.226-9.376-.374-3.5-1.129-7.341.772-10.302C63.612 1.68 67.106.58 70.19 1.127c3.083.547 5.77 2.485 7.881 4.797 8.135 8.904 8.253 23.128 2.828 33.9-5.424 10.773-15.364 18.584-25.795 24.638-7.152 4.15-15.169 7.744-23.393 6.886-6.788-.709-12.975-4.434-17.868-9.192-4.891-4.76-21.71-27.918-9.311-34.912z"/></svg></svg>