<?xml version="1.0" encoding="UTF-8" standalone="no"?>
<!DOCTYPE svg PUBLIC "-//W3C//DTD SVG 1.1//EN" "http://www.w3.org/Graphics/SVG/1.1/DTD/svg11.dtd">
<svg version="1.1" xmlns="http://www.w3.org/2000/svg" xmlns:xlink="http://www.w3.org/1999/xlink" preserveAspectRatio="xMidYMid meet" viewBox="39.094036613747285 76.71397035426132 571.4897018797033 523.4280691406539" width="567.49" height="519.43"><defs><path d="M41.19 247.12C41.18 247.15 41.18 247.18 41.18 247.19C36.46 304.56 47.19 362.15 72.27 413.96C73.1 415.67 75.17 419.94 78.47 426.78C78.55 426.94 78.6 427.04 78.62 427.09C93.8 458.66 113.6 487.79 137.36 513.53C137.53 513.71 137.96 514.17 138.64 514.92C138.71 514.98 138.76 515.03 138.77 515.05C173.18 549.41 215.13 575.27 261.3 590.56C262.19 590.85 237.36 582.63 248.93 586.46C260.12 590.17 271.67 592.67 283.39 593.95C294.95 595.2 276.65 593.21 279.38 593.51C320.46 597.97 361.89 598.32 403.05 594.58C403.05 594.58 403.05 594.58 403.05 594.58C403.05 594.58 403.05 594.58 403.05 594.58C443.5 588.94 482.43 575.34 517.6 554.58C518.71 553.93 521.49 552.29 525.93 549.66C528.65 547.83 530.35 546.68 531.03 546.23C571.04 519.28 597.94 476.81 605.19 429.12C605.45 427.36 606.13 422.94 607.2 415.88C607.2 415.88 607.2 415.88 607.2 415.88C609.6 366.81 600.75 317.84 581.33 272.7C581.18 272.34 580.79 271.44 580.17 270C579.43 268.37 578.96 267.35 578.78 266.94C559.15 223.82 531.32 184.94 496.85 152.45C496.09 151.74 494.21 149.96 491.19 147.12C488.01 144.18 486.02 142.35 485.23 141.62C448.22 107.45 401.14 86.19 351.04 81.01C349.96 80.9 347.23 80.62 342.88 80.17C340.42 79.93 338.88 79.78 338.26 79.72C267.96 72.9 197.07 83.53 131.86 110.68C131.86 110.68 131.86 110.68 131.86 110.68C130.28 111.65 129.29 112.27 128.89 112.51C83.66 140.35 52.37 186.07 42.8 238.31C42.59 239.48 42.05 242.42 41.19 247.12Z" id="a587Akp0Ge"></path></defs><g><g><use xlink:href="#a587Akp0Ge" opacity="1" fill="#000000" fill-opacity="1"></use></g></g></svg>