<svg width="88" height="80" xmlns="http://www.w3.org/2000/svg" xmlns:xlink="http://www.w3.org/1999/xlink" xmlns:svgjs="http://svgjs.com/svgjs" viewBox="0.007 0 87.986 80" fill="#f8b133"><svg xmlns="http://www.w3.org/2000/svg" width="88" height="80" viewBox="0.883 0.857 86.732 78.86"><path paint-order="stroke fill markers" fill-rule="evenodd" d="M54.916 59.253c9.741.696 19.375-.243 25.789-2.784 2.192-.869 4.236-1.762 6.005.862 1.75 2.597.737 4.367-1.114 6.378C69.274 81.432 50.139 83.446 27.27 74.611 8.968 67.541.777 53.534.884 34.157c.056-10.073.312-20.051 4.612-29.411C6.276 3.048 6.71.897 9.366.858c3.647-.053 5.078 1.688 4.734 5.454-.746 8.155 6.374 25.805 10.2 33.806 6.682 13.97 19.831 18.44 30.616 19.135z"/></svg></svg>