<svg width="104" height="110" xmlns="http://www.w3.org/2000/svg" xmlns:xlink="http://www.w3.org/1999/xlink" xmlns:svgjs="http://svgjs.com/svgjs" viewBox="0 0.187 104 109.626" fill="#f8b133"><svg xmlns="http://www.w3.org/2000/svg" width="104" height="110" viewBox="0.594 0.731 102.869 108.433"><path paint-order="stroke fill markers" fill-rule="evenodd" d="M101.55 81.766c3.148-6.316 2.221-15.833-1.403-21.79-4.769-7.837-10.129-7.858-16.014-10.27 0 0-10.056-3.4-14.72-6.1-11.998-7.24-15.766-21.14-22.05-32.738C37.77-5.685 16.641-.102 7.928 14.251.313 25.737-.699 40.076 1.843 53.275c3.015 17.793 11.602 35.01 25.377 46.892 8.63 8.476 21.5 10.472 33.018 8.026 6.284-.835 11.78-3.72 17.592-6.102 11.931-4.893 22.158-16.996 23.72-20.325z"/></svg></svg>