<?xml version="1.0" encoding="UTF-8" standalone="no"?>
<!DOCTYPE svg PUBLIC "-//W3C//DTD SVG 1.1//EN" "http://www.w3.org/Graphics/SVG/1.1/DTD/svg11.dtd">
<svg version="1.1" xmlns="http://www.w3.org/2000/svg" xmlns:xlink="http://www.w3.org/1999/xlink" preserveAspectRatio="xMidYMid meet" viewBox="0 0 640 640" width="640" height="640"><defs><path d="M10.25 298.82C11.33 334.57 16.81 370.05 26.57 404.45C30.22 417.31 29.08 413.28 33.38 428.44C40.97 455.18 51.99 480.82 66.18 504.72C74.73 519.13 61.9 497.52 66.18 504.72C93.58 550.9 138 584.48 189.9 598.25C196.77 600.07 183.14 596.45 201.69 601.37C216.6 605.33 232.08 606.73 247.47 605.51C260.58 604.46 242.94 605.87 247.62 605.49C290.88 602.06 333.15 590.78 372.38 572.23C377.56 569.77 390.53 563.64 411.28 553.82C415.19 551.73 417.63 550.42 418.61 549.89C487.37 512.97 547.08 461.24 593.41 398.42C600.16 389.27 580.28 416.22 594.59 396.82C615.89 367.94 628.73 333.71 631.68 297.95C631.84 296 631.92 295.01 631.92 294.96C632.8 273.4 630.05 251.8 627.22 230.4C624.05 206.41 624.05 206.41 627.22 230.4C624.06 206.5 618.01 183.06 609.2 160.61C605.85 152.08 607.48 156.23 603.73 146.68C596.27 127.65 585.69 110 572.42 94.46C565.77 86.66 570.56 92.28 565.09 85.86C547.9 65.72 527.73 48.35 505.26 34.34C498.11 29.89 512.04 38.57 505.26 34.34C481.75 19.68 455.18 10.64 427.6 7.9C420.57 7.2 428.47 7.99 418.21 6.97C401.07 5.27 383.82 5.05 366.65 6.31C363.81 6.52 373.4 5.81 368.64 6.16C368.64 6.16 336.43 9.84 336.43 9.84C327.19 11.28 339.64 9.35 336.43 9.84C305.73 14.62 275.72 23.07 247.03 35.01C245.43 35.67 241.41 37.35 234.99 40.02C234.69 40.13 234.5 40.21 234.42 40.23C174.78 62.67 120.3 96.96 74.27 141.02C73.71 141.55 72.33 142.88 70.11 145C66.81 148.58 64.75 150.81 63.93 151.71C39.84 177.85 22.51 209.48 13.42 243.84C12.7 246.57 16.19 233.38 13.42 243.84C11.03 252.9 9.81 262.23 9.81 271.59C9.81 274.14 9.81 273.91 9.81 278.01C9.81 278.01 10 290.65 10 290.65C10.38 303.05 10.16 295.92 10.25 298.82Z" id="b2XyqEasL"></path></defs><g><g><g><use xlink:href="#b2XyqEasL" opacity="1" fill="#000000" fill-opacity="1"></use><g><use xlink:href="#b2XyqEasL" opacity="1" fill-opacity="0" stroke="#000000" stroke-width="0" stroke-opacity="1"></use></g></g></g></g></svg>