<svg width="37" height="76" xmlns="http://www.w3.org/2000/svg" xmlns:xlink="http://www.w3.org/1999/xlink" xmlns:svgjs="http://svgjs.com/svgjs" viewBox="254 2063 37 76"><svg width="23" height="25" xmlns="http://www.w3.org/2000/svg" xmlns:xlink="http://www.w3.org/1999/xlink" xmlns:svgjs="http://svgjs.com/svgjs" viewBox="0.089 0 22.823 25" fill="#ffbbba" x="268" y="2063"><svg xmlns="http://www.w3.org/2000/svg" xmlns:xlink="http://www.w3.org/1999/xlink" width="23" height="25" viewBox="0.937 0.436 21.734 23.808"><path paint-order="stroke fill markers" fill-rule="evenodd" d="M1.397 8.425c.878-3.48 3.228-6.39 6.293-7.518C10.755-.22 15.148.79 17.882 2.709c4.349 3.053 6.071 10.017 3.762 15.154-2.31 5.137-8.31 7.728-13.103 5.675C3.748 21.485-.49 15.905 1.397 8.425z"/></svg></svg><svg width="19" height="42" xmlns="http://www.w3.org/2000/svg" xmlns:xlink="http://www.w3.org/1999/xlink" xmlns:svgjs="http://svgjs.com/svgjs" viewBox="0.086 0 18.828 42" fill="#ffbbba" x="254" y="2097"><svg xmlns="http://www.w3.org/2000/svg" width="19" height="42" viewBox="0 0.717 18.142 40.469"><path paint-order="stroke fill markers" fill-rule="evenodd" d="M3.66 17.35C7.745 6.704 12.061-.614 16.057.92c3.996 1.534 1.712 14.92-2.374 25.566C9.597 37.133 6.51 42.46 2.514 40.926c-3.997-1.534-2.942-12.93 1.145-23.576z"/></svg></svg></svg>