<svg width="49" height="55" xmlns="http://www.w3.org/2000/svg" xmlns:xlink="http://www.w3.org/1999/xlink" xmlns:svgjs="http://svgjs.com/svgjs" viewBox="0 0.011 49 54.978" fill="#f8b133"><svg xmlns="http://www.w3.org/2000/svg" width="49" height="55" viewBox="0.996 0.842 47.517 53.314"><path paint-order="stroke fill markers" fill-rule="evenodd" d="M32.006.925c.224.199.573.437.836.751 4.372 5.23 9.62 9.579 14.25 14.548 2.192 2.352 1.941 2.781-1.402 4.433-3.456 1.707-6.814 3.704-10.16 5.69-1.564.93-3.128 1.8-4.793 2.422-3.85 1.436-4.499 2.152-5.15 6.203-.907 5.658-3.21 11.09-4.963 16.606-.912 2.87-2.701 3.323-4.569 1.46-4.974-4.962-9.142-10.71-14.441-15.354-1.308-1.147-.3-1.424.82-1.875 5.227-2.103 10.592-3.286 15.9-4.849 6.14-1.808 6.425-1.828 6.596-8.066.193-7.024 3.056-13.651 5.092-20.413C30.47.99 31.027.66 32.006.925z"/></svg></svg>