<?xml version="1.0" encoding="UTF-8" standalone="no"?>
<!DOCTYPE svg PUBLIC "-//W3C//DTD SVG 1.1//EN" "http://www.w3.org/Graphics/SVG/1.1/DTD/svg11.dtd">
<svg version="1.1" xmlns="http://www.w3.org/2000/svg" xmlns:xlink="http://www.w3.org/1999/xlink" preserveAspectRatio="xMidYMid meet" viewBox="16.65534803842577 25.88094111037612 612.2461470142931 584.896411523993" width="608.25" height="580.9"><defs><path d="M72.98 506.54C87.34 531.33 106.76 552.81 129.98 569.58C137.96 575.33 132.05 571.07 141.38 577.81C160.1 591.33 181.7 600.32 204.49 604.09C223.76 607.27 197.56 602.94 204.49 604.09C266.85 614.38 330.85 602.98 385.81 571.79C386.67 571.3 388.8 570.09 392.22 568.15C409.94 558.45 421.01 552.39 425.44 549.96C455.42 533.54 483.37 513.65 508.7 490.69C512.92 486.86 523.48 477.29 540.37 461.98C555.6 445.55 565.12 435.29 568.93 431.18C613.77 382.85 633.76 316.5 623.08 251.44C621.85 243.92 625.42 265.71 621.78 243.5C618.54 223.76 613.46 204.37 606.58 185.59C604.95 181.12 604.24 179.2 601.08 170.54C601.08 170.54 595.05 156.15 595.05 156.15C584.62 134.1 592.93 151.67 591.57 148.79C561.15 84.54 500.54 39.82 430.18 29.72C427.82 29.38 421.94 28.53 412.52 27.18C412.52 27.18 412.52 27.18 412.52 27.18C326.3 23.92 241.17 47.31 168.73 94.18C163.8 97.37 175.93 89.52 149.9 106.36C149.9 106.36 138.49 114.24 138.49 114.24C118.53 128.97 116.94 130.14 110.16 135.14C64.06 169.15 31.84 218.69 19.45 274.61C19.28 275.39 18.84 277.36 18.15 280.49C18.1 281.59 18.07 282.28 18.06 282.55C14.59 360.93 33.65 438.66 72.98 506.54C77.34 514.06 60.93 485.75 72.98 506.54Z" id="a1YUBoQMxL"></path></defs><g><g><use xlink:href="#a1YUBoQMxL" opacity="1" fill="#000000" fill-opacity="1"></use></g></g></svg>