<svg width="95" height="92" xmlns="http://www.w3.org/2000/svg" xmlns:xlink="http://www.w3.org/1999/xlink" xmlns:svgjs="http://svgjs.com/svgjs" viewBox="0 0.533 95 90.934" fill="#98d0c9"><svg xmlns="http://www.w3.org/2000/svg" width="95" height="92" viewBox="0.048 0.711 94.683 90.631"><path paint-order="stroke fill markers" fill-rule="evenodd" d="M80.932 71.544c-14.723-7.637-20.657 1.36-25.9 13.523-3.755 8.715-15.039 8.282-16.941-.858-3.61-17.345-13.648-25.386-30.37-28.112-5.11-.833-8.307-5.261-7.567-10.648.656-4.778 2.633-8.966 8.534-10.235 6.127-1.317 14.714.753 17.814-4.061 2.67-4.148-.008-11.618-.233-17.622-.211-5.646.11-11.038 7.274-12.595 6.77-1.472 12.083 4.497 14.223 11.192 2.484 7.778 5.46 8.708 12.064 4.692 6.379-3.88 18.184-6.673 22.802.086 4.517 6.61 1.798 13.491-3.702 18.852-3.956 3.855-4.784 5.59 1.605 8.257 16.547 6.906 15.205 17.064 12.689 22.49-2.287 4.927-7.775 7.381-12.292 5.039z"/></svg></svg>