<svg width="86" height="85" xmlns="http://www.w3.org/2000/svg" xmlns:xlink="http://www.w3.org/1999/xlink" xmlns:svgjs="http://svgjs.com/svgjs" viewBox="0 0.23 86 84.541" fill="#ff1d25"><svg xmlns="http://www.w3.org/2000/svg" width="86" height="85" viewBox="0.357 0.711 85.41 83.96"><path paint-order="stroke fill markers" fill-rule="evenodd" d="M40.86 84.661c4.152-.138 6.564-3.167 5.737-7.25-.832-4.103-3.163-7.416-5.902-10.483-2.492-2.79-4.986-5.857-7.337-8.764-1.804-2.23-2.078-4.18-1.659-4.735.419-.556 3.675 1.14 5.359 2.055 3.971 2.16 7.785 4.616 11.796 6.698a20.481 20.481 0 0 0 6.194 2.016c6.465 1.005 10.508-3.895 8.536-10.17-1.163-3.693-3.574-6.524-6.39-9.079a124.78 124.78 0 0 1-5.725-5.525c-.606-.625-1.643-1.957-1.502-2.498 1.256-1.891 5.043-.474 7.345.245 3.57 1.12 7.05 2.558 10.663 3.499 5.17 1.35 9.937.28 13.932-3.4 4.828-4.446 5.247-10.291.573-14.841C70.684 10.944 57.123 2.722 40.324.984 34.677.399 29.092.72 23.608 2.287 8.868 6.51-.072 18.723.373 34.073.645 43.56 3.875 52.115 8.962 59.98c6.117 9.467 14.193 16.92 23.861 22.72 2.56 1.54 5.204 2.053 8.037 1.961z"/></svg></svg>