<svg width="25" height="24" xmlns="http://www.w3.org/2000/svg" xmlns:xlink="http://www.w3.org/1999/xlink" xmlns:svgjs="http://svgjs.com/svgjs" viewBox="0.533 0 23.933 24" fill="#28468d"><svg xmlns="http://www.w3.org/2000/svg" width="25" height="24" viewBox="0.879 0 23.462 23.527"><path paint-order="stroke fill markers" fill-rule="evenodd" d="M23.45 0H1.836A.973.973 0 0 0 .88.956v21.542c0 .588.441 1.03.956 1.03h11.543v-8.824h-2.94v-3.676h2.94v-2.94c0-3.015 1.912-4.56 4.632-4.56 1.323 0 2.426.148 2.72.148v3.161H18.82c-1.47 0-1.838.736-1.838 1.765v2.426h3.676l-.735 3.676H16.98l.073 8.823h6.323a.973.973 0 0 0 .956-.956V.956C24.406.44 23.965 0 23.45 0z"/></svg></svg>