<svg width="91" height="71" xmlns="http://www.w3.org/2000/svg" xmlns:xlink="http://www.w3.org/1999/xlink" xmlns:svgjs="http://svgjs.com/svgjs" viewBox="0 0.324 91 70.352" fill="#28468d"><svg xmlns="http://www.w3.org/2000/svg" width="91" height="71" viewBox="0.559 0.187 90.432 69.914"><path paint-order="stroke fill markers" fill-rule="evenodd" d="M.597 54.822c-.347 3.665 1.712 7.246 4.573 9.562 2.86 2.317 6.43 3.56 9.983 4.526 4.375 1.19 9.25 1.98 13.282-.096 5.876-3.026 7.412-10.575 8.264-17.13.628-4.823 1.454-10.067 5.027-13.368 5.25-4.85 13.58-3.182 20.368-.95 6.79 2.23 14.713 4.598 20.646.616 4.484-3.01 6.213-8.7 7.256-13.999.803-4.08 1.386-8.29.674-12.387-.712-4.098-2.897-8.115-6.517-10.164-3.62-2.049-8.736-1.609-11.365 1.614-3.764 4.612-1.526 12.734-6.285 16.31-3.312 2.49-7.986 1.166-11.915-.147-5.056-1.69-10.298-3.213-15.62-2.926-5.323.286-10.805 2.693-13.51 7.285-1.985 3.371-2.265 7.438-2.622 11.333-.358 3.895-.926 7.992-3.328 11.079-5.231 6.723-17.832-2.552-18.911 8.842z"/></svg></svg>