<svg width="69" height="72" xmlns="http://www.w3.org/2000/svg" xmlns:xlink="http://www.w3.org/1999/xlink" xmlns:svgjs="http://svgjs.com/svgjs" viewBox="0.184 0 68.632 72" fill="#42aa69"><svg xmlns="http://www.w3.org/2000/svg" width="69" height="72" viewBox="0.209 0 68.326 71.679"><path paint-order="stroke fill markers" fill-rule="evenodd" d="M46.73.635C59.665 4.969 66.28 12.52 68.28 24.066c.488 2.818.32 5.538-.893 8.158-5.984 12.914-12.18 25.7-21.083 36.96-1.285 1.625-2.486 3.193-4.657 2.168-2.142-1.01-2.654-3.044-2.264-5.325.576-3.36 2.919-5.91 4.078-8.992.82-2.18 2.783-4.747.17-6.622-2.671-1.92-5.41-.446-7.465 1.64-2.311 2.345-4.337 4.97-6.531 7.431-2.598 2.915-5.658 4.307-9.167 1.73-3.666-2.691-3.334-6.29-1.281-9.756 1.942-3.281 4.239-6.351 6.361-9.527 1.185-1.773 1.423-3.687-.126-5.261-1.75-1.78-3.808-1.306-5.733-.093-3.139 1.978-5.349 4.932-7.915 7.517-2.658 2.677-5.77 5.457-9.476 2.418-3.306-2.712-2.241-6.578.111-9.373 9.558-11.353 16.227-25.185 29.342-33.52C37.21.149 42.584-.78 46.731.635z"/></svg></svg>