<svg width="24" height="25" xmlns="http://www.w3.org/2000/svg" xmlns:xlink="http://www.w3.org/1999/xlink" xmlns:svgjs="http://svgjs.com/svgjs" viewBox="1218 136 24 25"><svg width="4" height="4" xmlns="http://www.w3.org/2000/svg" xmlns:xlink="http://www.w3.org/1999/xlink" xmlns:svgjs="http://svgjs.com/svgjs" fill="#28468d" x="1234" y="141"><svg xmlns="http://www.w3.org/2000/svg" xmlns:xlink="http://www.w3.org/1999/xlink" width="4" height="4" viewBox="0.99 0.136 2.865 2.865"><path paint-order="stroke fill markers" fill-rule="evenodd" d="M2.422 3a1.431 1.431 0 1 1 0-2.865c.792 0 1.433.641 1.433 1.433s-.64 1.433-1.433 1.433z"/></svg></svg><svg width="14" height="14" xmlns="http://www.w3.org/2000/svg" xmlns:xlink="http://www.w3.org/1999/xlink" xmlns:svgjs="http://svgjs.com/svgjs" fill="#28468d" x="1223" y="142"><svg xmlns="http://www.w3.org/2000/svg" xmlns:xlink="http://www.w3.org/1999/xlink" width="14" height="14" viewBox="0.905 0.815 12.275 12.275"><path paint-order="stroke fill markers" fill-rule="evenodd" d="M7.043.815a6.138 6.138 0 1 0 6.137 6.137A6.135 6.135 0 0 0 7.043.815zm0 10.117a3.984 3.984 0 1 1-.001-7.968 3.984 3.984 0 0 1 0 7.968z"/></svg></svg><svg width="24" height="25" xmlns="http://www.w3.org/2000/svg" xmlns:xlink="http://www.w3.org/1999/xlink" xmlns:svgjs="http://svgjs.com/svgjs" viewBox="0 0.502 24 23.995" fill="#28468d" x="1218" y="136"><svg xmlns="http://www.w3.org/2000/svg" width="24" height="25" viewBox="0.095 1 23.905 23.9"><path paint-order="stroke fill markers" fill-rule="evenodd" d="M12.043 1c-3.244 0-3.652.014-4.928.071-1.271.057-2.14.26-2.898.555A5.798 5.798 0 0 0 2.1 3.006a5.862 5.862 0 0 0-1.38 2.116C.427 5.88.223 6.748.166 8.024c-.057 1.271-.07 1.68-.07 4.923 0 3.245.013 3.653.07 4.928.057 1.272.261 2.14.555 2.903a5.804 5.804 0 0 0 1.38 2.116 5.926 5.926 0 0 0 2.116 1.38c.759.294 1.627.498 2.903.555 1.275.057 1.679.07 4.928.07 3.249 0 3.652-.013 4.928-.07 1.27-.057 2.139-.261 2.902-.555a6.113 6.113 0 0 0 3.496-3.496c.294-.759.498-1.627.555-2.903.057-1.275.07-1.679.07-4.928 0-3.248-.013-3.652-.07-4.927-.057-1.272-.261-2.14-.555-2.903A5.804 5.804 0 0 0 21.994 3a5.927 5.927 0 0 0-2.116-1.38c-.759-.294-1.627-.498-2.902-.555C15.695 1.014 15.287 1 12.043 1zm0 2.153c3.192 0 3.567.014 4.828.071 1.167.052 1.798.247 2.22.413.517.19.986.498 1.375.892.399.384.702.853.892 1.375.166.422.36 1.053.413 2.22.057 1.261.07 1.636.07 4.828s-.013 3.567-.07 4.829c-.052 1.166-.247 1.797-.413 2.22a3.954 3.954 0 0 1-2.267 2.267c-.422.166-1.053.36-2.22.412-1.261.057-1.636.071-4.828.071s-3.567-.014-4.829-.07c-1.166-.053-1.797-.247-2.22-.413a3.77 3.77 0 0 1-1.375-.892A3.63 3.63 0 0 1 2.728 20c-.166-.422-.36-1.053-.413-2.22-.057-1.261-.071-1.636-.071-4.828s.014-3.567.07-4.828c.053-1.167.248-1.798.414-2.22.19-.517.498-.987.891-1.375a3.631 3.631 0 0 1 1.376-.892c.422-.166 1.053-.36 2.22-.413 1.261-.061 1.64-.07 4.828-.07z"/></svg></svg></svg>