<svg width="661" height="648" xmlns="http://www.w3.org/2000/svg" xmlns:xlink="http://www.w3.org/1999/xlink" xmlns:svgjs="http://svgjs.com/svgjs" viewBox="717 258 661 648"><svg width="70" height="73" xmlns="http://www.w3.org/2000/svg" xmlns:xlink="http://www.w3.org/1999/xlink" xmlns:svgjs="http://svgjs.com/svgjs" viewBox="0.373 0 69.254 73" fill="#f8b133" x="1302" y="312"><svg xmlns="http://www.w3.org/2000/svg" xmlns:xlink="http://www.w3.org/1999/xlink" width="70" height="73" viewBox="0.669 0.349 68.804 72.526"><path paint-order="stroke fill markers" fill-rule="evenodd" d="M68.194 54.55c2.106-4.224 1.486-10.59-.938-14.574-3.19-5.242-6.775-5.256-10.711-6.87 0 0-6.726-2.273-9.846-4.08C38.674 24.185 36.154 14.888 31.95 7.13 25.534-3.942 11.402-.208 5.575 9.392.48 17.075-.195 26.666 1.505 35.494c2.016 11.9 7.76 23.417 16.973 31.364 5.773 5.669 14.38 7.004 22.084 5.368 4.203-.558 7.88-2.488 11.767-4.081 7.98-3.273 14.82-11.368 15.865-13.595z"/></svg></svg><svg width="640" height="648" xmlns="http://www.w3.org/2000/svg" xmlns:xlink="http://www.w3.org/1999/xlink" xmlns:svgjs="http://svgjs.com/svgjs" viewBox="0 0.327 640 647.345" fill="#ffb2b6" x="717" y="258"><svg xmlns="http://www.w3.org/2000/svg" xmlns:xlink="http://www.w3.org/1999/xlink" width="640" height="648" viewBox="0.163 0.836 639.298 646.635"><path paint-order="stroke fill markers" fill-rule="evenodd" d="M13.67 217.831c25.84-94.525 94.963-173.587 185.124-204.195 90.16-30.608 219.353-3.177 299.778 48.95 127.925 82.91 178.584 272.05 110.652 411.582-67.932 139.534-244.408 209.914-385.392 154.146-140.985-55.77-265.7-207.307-210.161-410.483z"/></svg></svg><svg width="102" height="47" xmlns="http://www.w3.org/2000/svg" xmlns:xlink="http://www.w3.org/1999/xlink" xmlns:svgjs="http://svgjs.com/svgjs" viewBox="0 0.348 102 46.303" fill="#ff1d25" x="1204" y="481"><svg xmlns="http://www.w3.org/2000/svg" xmlns:xlink="http://www.w3.org/1999/xlink" width="102" height="47" viewBox="0.557 0.379 101.111 45.9"><path paint-order="stroke fill markers" fill-rule="evenodd" d="M1.57 22.84C-.122 26.11.448 30.2 2.234 33.42c1.785 3.219 4.632 5.707 7.564 7.933 3.611 2.742 7.837 5.298 12.352 4.882 6.582-.606 10.832-7.033 14.075-12.792 2.387-4.238 5.116-8.792 9.665-10.515 6.683-2.533 13.782 2.131 19.244 6.741 5.46 4.61 11.921 9.77 18.915 8.298 5.283-1.112 9.017-5.743 11.966-10.266 2.273-3.484 4.388-7.168 5.262-11.235.874-4.066.35-8.61-2.24-11.864-2.59-3.254-7.499-4.76-11.143-2.756-5.217 2.868-6.18 11.237-11.932 12.772-4.003 1.069-7.842-1.907-10.995-4.596-4.055-3.458-8.347-6.834-13.39-8.56C46.533-.265 40.549-.084 36.322 3.163c-3.102 2.382-4.884 6.049-6.673 9.527-1.79 3.478-3.85 7.065-7.232 9.029-7.367 4.276-15.58-9.041-20.846 1.121z"/></svg></svg><svg width="44" height="75" xmlns="http://www.w3.org/2000/svg" xmlns:xlink="http://www.w3.org/1999/xlink" xmlns:svgjs="http://svgjs.com/svgjs" viewBox="0.096 0 43.808 75" fill="#42aa69" x="1173" y="336"><svg xmlns="http://www.w3.org/2000/svg" xmlns:xlink="http://www.w3.org/1999/xlink" width="44" height="75" viewBox="0.048 0.412 43.467 74.416"><path paint-order="stroke fill markers" fill-rule="evenodd" d="M43.496 35.57c-.672 15.005-2.001 27.755-14.672 36.162-10.47 6.945-21.215 1.363-26.153-8.401-4.53-8.96-2.903-17.444 2.67-25.61 8.868-12.997 20.674-23.433 30.51-35.573.754-.93 1.474-2 2.794-1.677 1.723.423 1.654 1.997 1.788 3.393 1.067 11.12 3.31 24.728 3.063 31.705z"/></svg></svg><svg width="79" height="59" xmlns="http://www.w3.org/2000/svg" xmlns:xlink="http://www.w3.org/1999/xlink" xmlns:svgjs="http://svgjs.com/svgjs" viewBox="0 0.211 79 58.577" fill="#28468d" x="1299" y="599"><svg xmlns="http://www.w3.org/2000/svg" width="79" height="59" viewBox="0.027 0.201 78.464 58.18"><path paint-order="stroke fill markers" fill-rule="evenodd" d="M59.471 55.868c-8.42 3.167-17.929 3.347-26.463.502-8.401-2.801-15.72-8.423-21.22-15.364C4.244 31.486.118 19.366.028 7.233c-.04-5.266 5.53-8.68 10.184-6.215L44.14 18.99c7.053 3.736 13.091 6.427 20.593 10.184 4.742 2.375 16.93 6.352 12.984 12.689-3.986 6.4-11.308 11.396-18.246 14.005z"/></svg></svg></svg>